<mxfile host="65bd71144e">
    <diagram id="ibS01Ov1BNn2dlUjqjm7" name="Page-1">
        <mxGraphModel dx="585" dy="331" grid="1" gridSize="10" guides="1" tooltips="1" connect="1" arrows="1" fold="1" page="1" pageScale="1" pageWidth="850" pageHeight="1100" math="0" shadow="0">
            <root>
                <mxCell id="0"/>
                <mxCell id="1" parent="0"/>
                <mxCell id="6" style="edgeStyle=none;html=1;entryX=0;entryY=0.5;entryDx=0;entryDy=0;fontColor=#000000;exitX=0.25;exitY=1;exitDx=0;exitDy=0;" edge="1" parent="1" source="2" target="5">
                    <mxGeometry relative="1" as="geometry">
                        <Array as="points">
                            <mxPoint x="80" y="365"/>
                        </Array>
                    </mxGeometry>
                </mxCell>
                <mxCell id="15" style="edgeStyle=none;html=1;entryX=0;entryY=0.5;entryDx=0;entryDy=0;fontSize=20;fontColor=#FFFFFF;exitX=0.25;exitY=1;exitDx=0;exitDy=0;" edge="1" parent="1" source="2" target="12">
                    <mxGeometry relative="1" as="geometry">
                        <Array as="points">
                            <mxPoint x="80" y="435"/>
                        </Array>
                    </mxGeometry>
                </mxCell>
                <mxCell id="2" value="The Class Tree" style="shape=step;perimeter=stepPerimeter;whiteSpace=wrap;html=1;fixedSize=1;fillColor=#CCCC00;fontColor=#000000;strokeColor=#000000;" vertex="1" parent="1">
                    <mxGeometry x="40" y="280" width="160" height="40" as="geometry"/>
                </mxCell>
                <mxCell id="5" value="A proc macro at the top of each class struct generates a compile time class registry." style="rounded=1;whiteSpace=wrap;html=1;strokeColor=#FFFFFF;fontColor=#FFFFFF;fillColor=#1A1A1A;arcSize=4;verticalAlign=top;align=left;spacingLeft=5;" vertex="1" parent="1">
                    <mxGeometry x="120" y="340" width="300" height="50" as="geometry"/>
                </mxCell>
                <mxCell id="12" value="To register a child class a proc macro isadded along with a 'parent' field pointing to the parent struct" style="rounded=1;whiteSpace=wrap;html=1;strokeColor=#FFFFFF;fontColor=#FFFFFF;fillColor=#1A1A1A;arcSize=4;verticalAlign=top;align=left;spacingLeft=5;" vertex="1" parent="1">
                    <mxGeometry x="120" y="410" width="300" height="50" as="geometry"/>
                </mxCell>
            </root>
        </mxGraphModel>
    </diagram>
</mxfile>